<svg id="SvgjsSvg1751" width="288" height="288" xmlns="http://www.w3.org/2000/svg" version="1.1" xmlns:xlink="http://www.w3.org/1999/xlink" xmlns:svgjs="http://svgjs.com/svgjs"><defs id="SvgjsDefs1752"></defs><g id="SvgjsG1753"><svg xmlns="http://www.w3.org/2000/svg" viewBox="0 0 32 32" width="288" height="288"><path d="M11 10c0-1.316.534-2.605 1.465-3.535a.5.5 0 0 0-.707-.707A6.038 6.038 0 0 0 10 10c0 1.053.278 2.09.805 3a.501.501 0 0 0 .683.183.5.5 0 0 0 .183-.683A4.988 4.988 0 0 1 11 10zm1.787 3.83a.5.5 0 0 0-.644.766c.067.057.135.11.204.164.069.053.141.104.212.154a.496.496 0 0 0 .696-.122.499.499 0 0 0-.122-.696l-.346-.266zM5 11.889c0-1.053.427-2.083 1.172-2.828a.5.5 0 0 0-.707-.707A5.032 5.032 0 0 0 4 11.889c0 .877.231 1.741.67 2.5a.499.499 0 1 0 .866-.5 4.014 4.014 0 0 1-.536-2zm2.003 3.465-.3-.19a.497.497 0 0 0-.695.127.498.498 0 0 0 .127.695l.362.231a.503.503 0 0 0 .685-.179.501.501 0 0 0-.179-.684zM30 12c0-3.859-3.141-7-7-7-.23 0-.472.019-.729.048C20.804 3.195 18.541 2 16 2s-4.804 1.195-6.271 3.048A6.55 6.55 0 0 0 9 5c-3.859 0-7 3.141-7 7 0 3.147 2.089 5.815 4.952 6.693l-.589 1.764a.507.507 0 0 0 .029.386.509.509 0 0 0 .296.25A7.747 7.747 0 0 0 9 21.444c.071 0 .14-.014.21-.016.279.617.08 1.352-.487 1.731a2.377 2.377 0 0 0-.964 2.678l.875 2.918a.499.499 0 0 0 .623.335.498.498 0 0 0 .335-.622l-.876-2.918a1.385 1.385 0 0 1 .562-1.559 2.4 2.4 0 0 0 .971-2.653c.36-.058.716-.137 1.063-.246a.503.503 0 0 0 .325-.636l-.596-1.787a6.954 6.954 0 0 0 2.235-1.158c.156.057.313.113.473.16l-.761 2.284a.501.501 0 0 0 .326.636 9.05 9.05 0 0 0 2.306.38l.929 3.097a1.714 1.714 0 0 1-.694 1.928 2.725 2.725 0 0 0-.925 3.481l.123.246a.5.5 0 0 0 .895-.447l-.123-.246a1.722 1.722 0 0 1 .585-2.202 2.708 2.708 0 0 0 1.097-3.047l-.849-2.831a8.958 8.958 0 0 0 2.03-.359.501.501 0 0 0 .326-.636l-.761-2.284c.161-.047.317-.103.473-.16a6.954 6.954 0 0 0 2.235 1.158l-.596 1.787a.507.507 0 0 0 .029.386.509.509 0 0 0 .296.25 7.68 7.68 0 0 0 1.506.291l-.282.466a2.57 2.57 0 0 0 .383 3.153c.398.398.554.983.406 1.527l-.499 1.839a.5.5 0 0 0 .964.263l.499-1.839a2.58 2.58 0 0 0-.664-2.496 1.572 1.572 0 0 1-.234-1.929l.573-.949a7.652 7.652 0 0 0 1.969-.326.503.503 0 0 0 .325-.636l-.589-1.764C27.911 17.815 30 15.147 30 12zM7.479 20.271l.452-1.355c.029.004.057.003.085.007.323.045.649.077.984.077.015 0 .03-.004.046-.004.34-.002.68-.027 1.023-.08l.452 1.355a6.763 6.763 0 0 1-3.042 0zm2.559-2.373c-.096.017-.192.035-.288.048a5.983 5.983 0 0 1-2.041-.089C5.02 17.264 3 14.865 3 12a6.006 6.006 0 0 1 6.078-5.999c-.006.011-.01.023-.017.034-.167.291-.319.59-.449.903l-.005.012a7.992 7.992 0 0 0-.297.868c-.025.087-.046.176-.068.264a7.728 7.728 0 0 0-.137.687c-.014.092-.031.183-.042.276A7.922 7.922 0 0 0 8 10c0 .334.027.661.067.985.013.104.031.206.047.308.036.223.082.442.136.658.028.111.053.223.086.333.079.263.169.522.273.773.061.148.133.289.203.433a7.185 7.185 0 0 0 .485.863c.072.111.149.217.226.324.156.216.322.422.499.621.113.128.226.257.347.377.109.107.224.207.339.308.133.117.269.23.409.339.101.078.201.156.306.229.255.179.519.346.795.495l.011.007a5.978 5.978 0 0 1-2.191.845zm4.065 1.875.622-1.867c.076.011.149.007.224.016.345.046.694.078 1.051.078s.706-.032 1.051-.077c.075-.009.149-.005.224-.016l.622 1.867c-1.24.3-2.554.3-3.794-.001zm5.383-3.712a7.026 7.026 0 0 1-.857.422 6.964 6.964 0 0 1-2.903.503 6.94 6.94 0 0 1-2.354-.503 7.026 7.026 0 0 1-1.653-.958c-.081-.063-.162-.125-.241-.192a7.02 7.02 0 0 1-1.415-1.645 6.974 6.974 0 0 1-.709-1.505 6.812 6.812 0 0 1-.283-1.248A6.882 6.882 0 0 1 9 10c0-.333.032-.662.078-.987a6.953 6.953 0 0 1 .262-1.159c.008-.025.019-.049.027-.074.105-.313.233-.618.383-.914l.033-.069c.161-.31.347-.61.556-.897A6.99 6.99 0 0 1 16 3a6.99 6.99 0 0 1 5.661 2.9c.209.288.395.587.556.898l.033.069c.15.296.277.602.383.914.008.025.019.049.027.074a6.966 6.966 0 0 1 .262 1.159c.046.324.078.653.078.986a7.046 7.046 0 0 1-.109 1.188 6.984 6.984 0 0 1-.245.994 6.83 6.83 0 0 1-.71 1.506 7.494 7.494 0 0 1-.633.866 6.981 6.981 0 0 1-.782.779c-.078.066-.159.129-.24.192-.194.15-.396.291-.607.421a5.888 5.888 0 0 1-.188.115zm1.993 4.21.452-1.355c.343.053.683.078 1.023.08.016 0 .031.004.046.004.335 0 .661-.032.983-.077.029-.004.057-.002.085-.007l.452 1.355a6.759 6.759 0 0 1-3.041 0zm2.812-2.414a5.983 5.983 0 0 1-2.041.089c-.096-.012-.192-.031-.288-.048a5.996 5.996 0 0 1-2.191-.845l.011-.007c.276-.149.54-.316.795-.495.105-.073.205-.151.306-.229.14-.109.276-.222.409-.339.115-.101.23-.201.339-.308.121-.12.234-.249.347-.377a8.02 8.02 0 0 0 .499-.621c.077-.107.154-.213.226-.324.093-.143.181-.287.265-.435.079-.14.15-.284.22-.428.07-.144.142-.285.203-.433.104-.251.195-.51.273-.773.032-.11.058-.221.086-.333.055-.216.1-.435.136-.658.017-.103.034-.204.047-.308.04-.324.067-.651.067-.985 0-.324-.025-.641-.063-.955-.011-.093-.028-.184-.042-.276a8.263 8.263 0 0 0-.137-.687c-.022-.088-.043-.177-.068-.264a7.992 7.992 0 0 0-.297-.868l-.005-.012a7.988 7.988 0 0 0-.449-.903c-.006-.011-.01-.023-.017-.034L23 6c3.309 0 6 2.691 6 6 0 2.865-2.02 5.264-4.709 5.857z" fill="#f5f5f5" class="color000 svgShape"></path></svg></g></svg>