<svg id="SvgjsSvg1269" width="288" height="288" xmlns="http://www.w3.org/2000/svg" version="1.1" xmlns:xlink="http://www.w3.org/1999/xlink" xmlns:svgjs="http://svgjs.com/svgjs"><defs id="SvgjsDefs1270"></defs><g id="SvgjsG1271"><svg xmlns="http://www.w3.org/2000/svg" viewBox="0 0 24 24" width="288" height="288"><path d="M7,12.5a3,3,0,1,0-3-3A3,3,0,0,0,7,12.5Zm0-4a1,1,0,1,1-1,1A1,1,0,0,1,7,8.5Zm13-2H12a1,1,0,0,0-1,1v6H3v-8a1,1,0,0,0-2,0v13a1,1,0,0,0,2,0v-3H21v3a1,1,0,0,0,2,0v-9A3,3,0,0,0,20,6.5Zm1,7H13v-5h7a1,1,0,0,1,1,1Z" fill="#f5f5f5" class="color000 svgShape"></path></svg></g></svg>