<svg id="SvgjsSvg1036" width="288" height="288" xmlns="http://www.w3.org/2000/svg" version="1.1" xmlns:xlink="http://www.w3.org/1999/xlink" xmlns:svgjs="http://svgjs.com/svgjs"><defs id="SvgjsDefs1037"></defs><g id="SvgjsG1038"><svg xmlns="http://www.w3.org/2000/svg" enable-background="new 0 0 32 32" viewBox="0 0 32 32" width="288" height="288"><path fill="none" stroke="#f5f5f5" stroke-linecap="round" stroke-linejoin="round" stroke-miterlimit="10" stroke-width="2" d="	M24,7.143c0-1.578-1.343-2.857-3-2.857c-0.822,0-1.565,0.316-2.107,0.825C18.488,3.331,16.903,2,15,2s-3.488,1.331-3.893,3.111
	C10.565,4.602,9.822,4.286,9,4.286c-1.657,0-3,1.279-3,2.857C6,7.856,6.284,8.499,6.737,9H14c0.552,0,1,0.448,1,1v2.893
	c0,0.996,0.681,1.92,1.664,2.08C17.917,15.176,19,14.215,19,13v-3c0-0.552,0.448-1,1-1h3.263C23.716,8.499,24,7.856,24,7.143z" class="colorStroke000 svgStroke"></path><path fill="none" stroke="#f5f5f5" stroke-linecap="round" stroke-linejoin="round" stroke-miterlimit="10" stroke-width="2" d="M23 9v18c0 1.105-.895 2-2 2H9c-1.105 0-2-.895-2-2V9M26 24h-3V12h3c1.105 0 2 .895 2 2v8C28 23.105 27.105 24 26 24z" class="colorStroke000 svgStroke"></path></svg></g></svg>