<svg id="SvgjsSvg1301" width="288" height="288" xmlns="http://www.w3.org/2000/svg" version="1.1" xmlns:xlink="http://www.w3.org/1999/xlink" xmlns:svgjs="http://svgjs.com/svgjs"><defs id="SvgjsDefs1302"></defs><g id="SvgjsG1303"><svg xmlns="http://www.w3.org/2000/svg" viewBox="0 0 24 24" width="288" height="288"><path d="M9 3H7c0-1.7 1.3-3 3-3v2c-.6 0-1 .4-1 1zm8 0h-2c0-.6-.4-1-1-1V0c1.7 0 3 1.3 3 3zm0 3H7V3h2v1h6V3h2zm-7-6h4v2h-4z" fill="#f5f5f5" class="color000 svgShape"></path><path d="M21 6H3c-.6 0-1-.4-1-1s.4-1 1-1h18c.6 0 1 .4 1 1s-.4 1-1 1zm-2 18H5c-.6 0-1-.4-1-1V9c0-.6.4-1 1-1h14c.6 0 1 .4 1 1v14c0 .6-.4 1-1 1zM6 22h12V10H6v12z" fill="#f5f5f5" class="color000 svgShape"></path><path d="M10 20c-.6 0-1-.4-1-1v-6c0-.6.4-1 1-1s1 .4 1 1v6c0 .6-.4 1-1 1zm4 0c-.6 0-1-.4-1-1v-6c0-.6.4-1 1-1s1 .4 1 1v6c0 .6-.4 1-1 1z" fill="#f5f5f5" class="color000 svgShape"></path></svg></g></svg>