<svg id="SvgjsSvg1868" width="288" height="288" xmlns="http://www.w3.org/2000/svg" version="1.1" xmlns:xlink="http://www.w3.org/1999/xlink" xmlns:svgjs="http://svgjs.com/svgjs"><defs id="SvgjsDefs1869"></defs><g id="SvgjsG1870"><svg xmlns="http://www.w3.org/2000/svg" viewBox="0 0 100 100" width="288" height="288"><path d="M41 43.7v-2.1c1.2-.5 2.1-1.3 2.7-2.5l1.2-2.5c.8-1.6.7-3.5-.2-5.1-1-1.6-2.6-2.5-4.5-2.5h-2.5c-1.8 0-3.5.9-4.5 2.5s-1.1 3.5-.2 5.1l1.2 2.5c.6 1.2 1.5 2 2.7 2.5v2.1c0 1.1.9 2 2 2s2.1-.9 2.1-2zm-3.1-6.5-1.2-2.5c-.3-.6 0-1 .1-1.2s.4-.6 1.1-.6h2.5c.6 0 1 .4 1.1.6s.3.7.1 1.2l-1.2 2.5c-.3.6-.9.7-1.1.7s-1.1 0-1.4-.7z" fill="#f5f5f5" class="color000 svgShape"></path><circle cx="49" cy="26.7" r="2" fill="#f5f5f5" class="color000 svgShape"></circle><circle cx="29" cy="26.7" r="2" fill="#f5f5f5" class="color000 svgShape"></circle><path d="M93 44.7c-7.7 0-14 6.3-14 14v4c0 10.3-7.9 18.9-18 19.9V67.7c0-6.3-2.7-11.9-6.9-16 2.5-1.5 4.8-3.3 6.6-5.4l9.7 3.2c.2.1.4.1.6.1.8 0 1.6-.5 1.9-1.4.3-1.1-.2-2.2-1.3-2.5l-8.5-2.8c1.6-2.6 2.5-5.6 2.8-8.7l5.3-.6c1.1-.1 1.9-1.1 1.8-2.2-.1-1.1-1.1-1.9-2.2-1.8l-4.8.6V11.3C66 9.1 64.8 7 62.8 6s-4.4-.9-6.2.4l-7.2 5c-3.3-1.2-6.8-1.8-10.4-1.8s-7.1.6-10.4 1.8l-7.2-5C19.6 5.1 17.2 5 15.2 6S12 9.1 12 11.3v18.9l-4.8-.5c-1.1-.1-2.1.7-2.2 1.8-.1 1.1.7 2.1 1.8 2.2l5.3.6c.2 3.1 1.2 6 2.8 8.7l-8.5 2.8c-1 .4-1.6 1.5-1.3 2.5.3.8 1.1 1.4 1.9 1.4.2 0 .4 0 .6-.1l9.7-3.2c1.8 2.1 4 3.9 6.6 5.4-4.2 4-6.9 9.7-6.9 16v21c0 3.3 2.7 6 6 6h32c3.3 0 6-2.7 6-6v-2.1c12.3-1 22-11.3 22-23.9v-4c0-5.5 4.5-10 10-10 1.1 0 2-.9 2-2 0-1.2-.9-2.1-2-2.1zm-34.2-35c.6-.4 1.4-.5 2.1-.1.7.4 1.1 1 1.1 1.8v9.3c-2.1-2.9-4.9-5.4-8.3-7.3l5.1-3.7zM16 11.3c0-.8.4-1.4 1.1-1.8.7-.3 1.4-.3 2.1.1l5.2 3.6c-3.4 1.9-6.3 4.4-8.3 7.3v-9.2zm5.5 33.6 4.2-1.4c1-.3 1.6-1.5 1.3-2.5-.4-1-1.5-1.6-2.5-1.3l-5.6 1.9a16.1 16.1 0 0 1-2.6-7l8.7 1h.2c1 0 1.9-.8 2-1.8.1-1.1-.7-2.1-1.8-2.2l-9.1-1c.7-6.4 5.6-12.2 12.7-15.1 3.1-1.2 6.5-1.9 10-1.9s6.8.6 10 1.9c7.2 2.9 12.1 8.7 12.9 15.1l-9.1 1c-1.1.1-1.9 1.1-1.8 2.2.1 1 1 1.8 2 1.8h.2l8.7-1c-.3 2.5-1.2 4.8-2.6 7l-5.6-1.9c-1-.3-2.2.2-2.5 1.3-.3 1 .2 2.2 1.3 2.5l4.2 1.4C52.3 49.1 46 51.7 39 51.7s-13.3-2.6-17.5-6.8zM57 88.7c0 1.1-.9 2-2 2h-4v-14c0-1.1-.9-2-2-2s-2 .9-2 2v14h-6v-18c0-1.1-.9-2-2-2s-2 .9-2 2v18h-6v-14c0-1.1-.9-2-2-2s-2 .9-2 2v14h-4c-1.1 0-2-.9-2-2v-21c0-5.7 2.7-10.8 6.8-14.1 3.4 1.3 7.2 2.1 11.2 2.1s7.8-.8 11.2-2.1C54.3 56.9 57 62 57 67.7v21z" fill="#f5f5f5" class="color000 svgShape"></path></svg></g></svg>