<svg id="SvgjsSvg1892" width="288" height="288" xmlns="http://www.w3.org/2000/svg" version="1.1" xmlns:xlink="http://www.w3.org/1999/xlink" xmlns:svgjs="http://svgjs.com/svgjs"><defs id="SvgjsDefs1893"></defs><g id="SvgjsG1894"><svg xmlns="http://www.w3.org/2000/svg" viewBox="0 0 24 24" width="288" height="288"><path d="M9,17h4a5,5,0,0,0,5-5V11h1a3,3,0,0,0,0-6H18V4a1,1,0,0,0-1-1H5A1,1,0,0,0,4,4v8A5,5,0,0,0,9,17ZM18,7h1a1,1,0,0,1,0,2H18ZM6,5H16v7a3,3,0,0,1-3,3H9a3,3,0,0,1-3-3ZM21,19H3a1,1,0,0,0,0,2H21a1,1,0,0,0,0-2Z" fill="#f5f5f5" class="color000 svgShape"></path></svg></g></svg>