<svg id="SvgjsSvg1028" width="288" height="288" xmlns="http://www.w3.org/2000/svg" version="1.1" xmlns:xlink="http://www.w3.org/1999/xlink" xmlns:svgjs="http://svgjs.com/svgjs"><defs id="SvgjsDefs1029"></defs><g id="SvgjsG1030"><svg xmlns="http://www.w3.org/2000/svg" viewBox="0 0 32 32" width="288" height="288"><g data-name="Layer 2"><path d="M16.874,14.274C9.657,14.274,4,11.359,4,7.637S9.657,1,16.874,1,29.745,3.916,29.745,7.637,24.092,14.274,16.874,14.274ZM16.874,3C10.467,3,6,5.444,6,7.637s4.464,4.637,10.871,4.637S27.745,9.831,27.745,7.637,23.28,3,16.874,3Z" fill="#f5f5f5" class="color000 svgShape"></path><path d="M16.876,18.23C9.66,18.23,4.006,15.316,4,11.594H4V7.637H6v3.954c0,2.194,4.466,4.64,10.874,4.64,6.289,0,10.708-2.355,10.869-4.518V7.637h2l0,3.954C29.75,15.314,24.1,18.23,16.876,18.23Z" fill="#f5f5f5" class="color000 svgShape"></path><path d="M17.812,27.045c-6.808,0-12.326-2.621-12.833-6.1l1.979-.289c.31,2.118,4.746,4.385,10.855,4.385,6.408,0,10.874-2.445,10.874-4.64,0-1.114-1.107-2.255-3.038-3.132l.828-1.821c2.715,1.233,4.21,2.993,4.21,4.953C30.686,24.129,25.03,27.045,17.812,27.045Z" fill="#f5f5f5" class="color000 svgShape"></path><path d="M17.812 31c-7.219 0-12.874-2.917-12.874-6.64V20.786h2V24.36C6.938 26.555 11.4 29 17.812 29a19.078 19.078 0 0 0 7.968-1.559c1.848-.87 2.906-1.992 2.906-3.081V20.406h2V24.36c0 1.922-1.438 3.659-4.052 4.889A21.09 21.09 0 0 1 17.812 31zM23.559 16.247v-1l-.594.353-.416.075a18.73 18.73 0 0 1-8.36 1.753c-6.408 0-10.874-2.445-10.874-4.64 0-.931.777-1.893 2.188-2.709l-1-1.731c-2.056 1.188-3.187 2.765-3.187 4.44 0 3.723 5.655 6.64 12.874 6.64a19.658 19.658 0 0 0 9.881-2.318l.479-.292v-.562z" fill="#f5f5f5" class="color000 svgShape"></path><path d="M14.188,23.383c-7.219,0-12.874-2.917-12.874-6.64V12.789h2v3.955c0,2.194,4.466,4.64,10.874,4.64s10.873-2.445,10.873-4.64V15.175h2v1.568C27.062,20.466,21.407,23.383,14.188,23.383Z" fill="#f5f5f5" class="color000 svgShape"></path></g></svg></g></svg>