<svg id="SvgjsSvg1324" width="288" height="288" xmlns="http://www.w3.org/2000/svg" version="1.1" xmlns:xlink="http://www.w3.org/1999/xlink" xmlns:svgjs="http://svgjs.com/svgjs"><defs id="SvgjsDefs1325"></defs><g id="SvgjsG1326"><svg xmlns="http://www.w3.org/2000/svg" enable-background="new 0 0 64 64" viewBox="0 0 64 64" width="288" height="288"><path fill="#f5f5f5" d="M22.8360081 39.3172951v-6.052021h-2.3869972v6.052021c0 .6531906.5168247 1.1827049 1.1543579 1.1827049h.0782814C22.3191833 40.5 22.8360081 39.9704857 22.8360081 39.3172951zM26.707386 39.3172951v-6.052021h-2.3869953v6.052021c0 .6531906.5168228 1.1827049 1.1543579 1.1827049h.0782795C26.1905632 40.5 26.707386 39.9704857 26.707386 39.3172951zM18.9646282 39.3172951v-6.052021h-2.3869953v6.052021c0 .6531906.5168228 1.1827049 1.1543579 1.1827049h.0782795C18.4478054 40.5 18.9646282 39.9704857 18.9646282 39.3172951zM15.0932493 39.3172951v-6.052021H12.706254v6.052021c0 .6531906.5168228 1.1827049 1.1543579 1.1827049h.0782795C14.5764256 40.5 15.0932493 39.9704857 15.0932493 39.3172951zM30.5782814 39.3172951v-6.052021h-2.3865128v6.052021c0 .6531906.5168247 1.1827049 1.1543579 1.1827049h.0777969C30.0614586 40.5 30.5782814 39.9704857 30.5782814 39.3172951z" class="color58595b svgShape"></path><path fill="#f5f5f5" d="M56.5672455,26.6969662H40.0639954c-0.7912025,0-1.5770493-0.1329308-2.3262596-0.3934994
		l-0.3322334-0.1155491c-10.0244789-3.4849949-20.9069328-3.5837593-30.9922924-0.2811337H6.4131489
		C4.9740057,26.3780231,4,27.7266979,4,29.2482109v9.7279854C4,39.8177719,4.6658783,40.5,5.4872804,40.5h0.0000033
		c0.8214021,0,1.4872804-0.6822281,1.4872804-1.5238037v-6.2059822c0-0.5653648,0.46242-1.0257721,1.0311437-1.0257721h27.0996513
		c0.5682411,0,1.031147,0.4604073,1.031147,1.0257721v6.3529243c0,0.7604179,0.6016655,1.3768616,1.3438606,1.3768616h0.0000038
		c0.7421913,0,1.3438606-0.6164436,1.3438606-1.3768616v-2.7945366c0-1.5077782,1.2159653-2.7300873,2.7159309-2.7300873h15.0270844
		C58.463131,33.5985146,60,32.0535469,60,30.1477413C60,28.2419338,58.463131,26.6969662,56.5672455,26.6969662z" class="color58595b svgShape"></path><path fill="#f5f5f5" d="M10.0675106 40.5h.0000019c.6375351 0 1.1543579-.5295143 1.1543579-1.1827049v-6.052021H8.9131527v6.052021C8.9131527 39.9704857 9.4299765 40.5 10.0675106 40.5zM34.3718643 39.3172951v-6.052021h-2.3096809v6.052021c0 .6531906.5168228 1.1827049 1.1543541 1.1827049h.0009689C33.8550415 40.5 34.3718643 39.9704857 34.3718643 39.3172951z" class="color58595b svgShape"></path></svg></g></svg>