<svg id="SvgjsSvg2144" width="288" height="288" xmlns="http://www.w3.org/2000/svg" version="1.1" xmlns:xlink="http://www.w3.org/1999/xlink" xmlns:svgjs="http://svgjs.com/svgjs"><defs id="SvgjsDefs2145"></defs><g id="SvgjsG2146"><svg xmlns="http://www.w3.org/2000/svg" viewBox="0 0 64 64" width="288" height="288"><path fill="#f5f5f5" d="M57.637 44.364a1 1 0 0 0-1.169.8C54.954 53.131 49.7 57.3 45.3 57.3h-3.883c.02-1.47.01-3.45-.09-5.82-.21-5.06-3.96-9.68-7.1-12.09-2.75-2.11-5.8-4.79-6.73-5.62h-12.13l.36 20.4a1 1 0 0 1-.97 1.02 2.99 2.99 0 0 0-2.41 1.01 4.872 4.872 0 0 0-.77 3.1H45.3c5.228 0 11.418-4.73 13.135-13.769a1 1 0 0 0-.798-1.167Zm-26.78 11.4h-7.95c-.94 0-1.28 1.61-1.29 1.79a1.017 1.017 0 0 1-1 .97h-.03a.979.979 0 0 1-.97-.98c0-.83.79-3.78 3.29-3.78h4.43a7.274 7.274 0 0 1-1.6-2.34c-1.55-3.63.15-7.7.23-7.88a1 1 0 0 1 1.84.79c-.02.03-1.45 3.48-.23 6.31a5.985 5.985 0 0 0 3.63 3.18 1 1 0 0 1-.35 1.94ZM14.645 21.488h-3.107c-2.328 0-5.495-2.969-5.989-6.134l9.264-1.583a1 1 0 0 0 .743-.574c.3-.666 1.363-2.477 2.663-2.947a1.144 1.144 0 0 0 .723-.84l.39-3.106a14.778 14.778 0 0 0-.674-1.604l2.127 1.04a1 1 0 0 1 .524.633l.947 3.44a.994.994 0 0 0 1.114.723 2.311 2.311 0 0 1 1.63.575c1.008.864 1.547 2.641 1.557 5.14.025 5.853.215 12.916.29 15.516H15.378l.266-9.25a1 1 0 0 0-1-1.029Zm-.36 11.279a.682.682 0 1 1-.681.681.682.682 0 0 1 .681-.681Z" data-name="Dog" class="color222 svgShape"></path></svg></g></svg>