<svg id="SvgjsSvg1017" width="288" height="288" xmlns="http://www.w3.org/2000/svg" version="1.1" xmlns:xlink="http://www.w3.org/1999/xlink" xmlns:svgjs="http://svgjs.com/svgjs"><defs id="SvgjsDefs1018"></defs><g id="SvgjsG1019"><svg xmlns="http://www.w3.org/2000/svg" viewBox="0 0 80 80" width="288" height="288"><path d="M9 53h6v1c0 2.206 1.794 4 4 4h6c2.206 0 4-1.794 4-4v-8h22v8c0 2.206 1.794 4 4 4h6c2.206 0 4-1.794 4-4v-1h6c2.206 0 4-1.794 4-4V31c0-2.206-1.794-4-4-4h-6v-1c0-2.206-1.794-4-4-4h-6c-2.206 0-4 1.794-4 4v8H29v-8c0-2.206-1.794-4-4-4h-6c-2.206 0-4 1.794-4 4v1H9c-2.206 0-4 1.794-4 4v18c0 2.206 1.794 4 4 4zm62-22v18h-6V31h6zm-16-5h6v28h-6V26zm-4.25 12v4H29v-4h21.75zM19 26h6v20h.002v8H19V26zM9 31h6v18H9V31z" fill="#f5f5f5" class="color000 svgShape"></path></svg></g></svg>