<svg id="SvgjsSvg1052" width="288" height="288" xmlns="http://www.w3.org/2000/svg" version="1.1" xmlns:xlink="http://www.w3.org/1999/xlink" xmlns:svgjs="http://svgjs.com/svgjs"><defs id="SvgjsDefs1053"></defs><g id="SvgjsG1054"><svg xmlns="http://www.w3.org/2000/svg" viewBox="0 0 32 32" width="288" height="288"><path d="M17.578 3.984a2.5 2.5 23.009 0 0-2.377 1.522 2.5 2.5 23.009 0 0 1.324 3.28 2.5 2.5 23.009 0 0 3.278-1.325 2.5 2.5 23.009 0 0-1.324-3.28 2.5 2.5 23.009 0 0-.9-.197zM11 10a1 1 0 1 0 0 2h5.92c-.094 0-.066.95.115 1.416l1.88 4.645-4.397-.051c-.834-.035-1.509.645-1.518 1.474 0 .049-.005.272.006.34l1.025 6.352c.074.456.448.78.887.824H2.5a.5.5 0 1 0 0 1h27a.5.5 0 1 0 0-1H15.187a.999.999 0 0 0 .819-1.143l-.787-4.882 6.558.025h.018c.301 0 .608-.046.906-.162a2.494 2.494 0 0 0 1.424-3.23l-2.43-6.004C21.28 10.534 20.424 10 19 10h-8z" fill="#f5f5f5" class="color000 svgShape"></path></svg></g></svg>