<svg id="SvgjsSvg1049" width="288" height="288" xmlns="http://www.w3.org/2000/svg" version="1.1" xmlns:xlink="http://www.w3.org/1999/xlink" xmlns:svgjs="http://svgjs.com/svgjs"><defs id="SvgjsDefs1050"></defs><g id="SvgjsG1051"><svg xmlns="http://www.w3.org/2000/svg" data-name="Layer 1" viewBox="0 0 512 512" width="288" height="288"><path fill="#f5f5f5" d="M119.96 270.899a54.732 54.732 0 1 0 54.608 54.732A54.732 54.732 0 0 0 119.96 270.9Zm0 94.464a39.732 39.732 0 1 1 39.608-39.732 39.715 39.715 0 0 1-39.608 39.732ZM505.1 300.997a33.496 33.496 0 0 0-4.81-41.083 33.525 33.525 0 0 0-5.939-4.73v-19.992a69.579 69.579 0 0 0-69.5-69.5H263.52a69.374 69.374 0 0 0-42.914 14.779l14.784-89.462a7.5 7.5 0 0 0-9.411-8.447L189.827 92.63a7.499 7.499 0 0 0-5.368 5.887l-6.196 34.178-3.426-38.744a7.5 7.5 0 0 0-10.998-5.96l-21.389 11.4-.729-27.394a7.5 7.5 0 0 0-10.884-6.494L97.342 82.452a7.5 7.5 0 0 0-4.113 6.793l.09 6.7-14.925-7.953a7.5 7.5 0 0 0-11.011 6.13l-3.564 54.527-12.3-48.316a7.498 7.498 0 0 0-5.754-5.495L9.014 87.265A7.5 7.5 0 0 0 .2 96.335l25.442 107.759a23.497 23.497 0 0 0-20.71 26.63L31.74 422.465a28.93 28.93 0 0 0 28.507 24.84h119.425a28.93 28.93 0 0 0 28.506-24.84l.296-2.119a69.18 69.18 0 0 0 55.045 26.955h161.33a69.579 69.579 0 0 0 69.5-69.5v-20.245A36.584 36.584 0 0 0 512 326.27v-3.89a36.245 36.245 0 0 0-6.901-21.384ZM495.02 283.46a18.006 18.006 0 0 1-9.361 15.964 18.205 18.205 0 0 1-18.706-.525c-8.355-5.218-17.177-7.649-27.763-7.649-18.381 0-27.867 7.282-36.237 13.706-7.412 5.69-13.814 10.604-27.103 10.604-13.283 0-19.683-4.914-27.093-10.604-8.366-6.424-17.85-13.706-36.227-13.706-18.377 0-27.86 7.282-36.227 13.706-7.41 5.69-13.81 10.604-27.093 10.604-11.921 0-18.3-3.962-24.84-8.888l5.805-41.521H476.77a18.277 18.277 0 0 1 18.25 18.31Zm-231.5-102.77h161.33a54.562 54.562 0 0 1 54.5 54.5v15.069a33.765 33.765 0 0 0-2.58-.108H232.272l2.716-19.428a23.491 23.491 0 0 0-16.772-25.851 54.327 54.327 0 0 1 45.304-24.181Zm-80.254 8.504 15.115-83.376 20.292-5.652-17.104 103.5-.146.29h-16.858l-1.304-14.743Zm-22.371-82.636 8.612 97.4h-1.656a7.498 7.498 0 0 0-5.31 2.204 60.269 60.269 0 0 1-16.93 11.965l-2.714-101.977Zm-33.853-22.324 3.69 138.638a59.966 59.966 0 0 1-20.702.145l-1.54-114.52v-.042l-.199-14.733ZM75.706 196.767c0-.022.003-.044.004-.067l5.883-90.006 11.956 6.372 1.417 105.353a60.22 60.22 0 0 1-17.587-12.257 7.49 7.49 0 0 0-2.188-1.515ZM17.5 104.33l20.64 4.252 22.517 88.446-.453 6.93H41.023Zm191.401 204.646-6.108 43.689c-.017.105-.033.21-.044.315l-5.91 42.267c-.007.059-.02.117-.025.177l-3.49 24.963a13.865 13.865 0 0 1-13.651 11.917H60.248a13.865 13.865 0 0 1-13.651-11.916l-26.81-191.74a8.418 8.418 0 0 1 2.01-6.783 8.332 8.332 0 0 1 6.372-2.908h6.891l.021.002.03-.001H69.05a75.104 75.104 0 0 0 101.822 0h40.88a8.332 8.332 0 0 1 6.372 2.907 8.418 8.418 0 0 1 2.01 6.783l-11.197 80.078c-.014.083-.024.167-.035.25Zm270.45 68.825a54.562 54.562 0 0 1-54.5 54.5H263.52a54.216 54.216 0 0 1-51.566-36.831l4.562-32.629h27.95l27.876 41.841a7.5 7.5 0 0 0 12.484 0l27.876-41.84H479.35Zm-216.86-14.96h32.187l-16.094 24.157ZM497 326.271a21.595 21.595 0 0 1-21.57 21.57h-255.9c-.306 0-.608-.024-.912-.037l3.43-24.529c6.646 4.054 14.93 7.286 27.162 7.286 18.377 0 27.86-7.281 36.228-13.706 7.41-5.69 13.809-10.603 27.092-10.603s19.682 4.914 27.093 10.603c8.366 6.425 17.85 13.706 36.227 13.706 18.381 0 27.868-7.281 36.237-13.705 7.412-5.69 13.814-10.604 27.103-10.604 9.885 0 15.564 2.714 19.817 5.37a33.015 33.015 0 0 0 33.926.922c.438-.243.857-.507 1.28-.767A21.424 21.424 0 0 1 497 322.381Z" class="color1e1f27 svgShape"></path></svg></g></svg>