<svg id="SvgjsSvg1475" width="288" height="288" xmlns="http://www.w3.org/2000/svg" version="1.1" xmlns:xlink="http://www.w3.org/1999/xlink" xmlns:svgjs="http://svgjs.com/svgjs"><defs id="SvgjsDefs1476"></defs><g id="SvgjsG1477"><svg xmlns="http://www.w3.org/2000/svg" viewBox="0 0 6.35 6.35" width="288" height="288"><path d="M2.91 290.915c-.51 0-.934.221-1.2.568-.267.346-.387.8-.387 1.285v.576a.799.799 0 0 0-.53.746v1.85a.8.8 0 0 0 .796.795c.435 0 .792-.36.792-.794v-1.851a.798.798 0 0 0-.529-.746v-.576c0-.395.103-.736.278-.963.175-.228.412-.361.78-.361.369 0 .606.133.781.36.175.228.278.569.278.964v.312a.795.795 0 0 0-.53.744c0 .343.223.635.53.746v.312c0 .435.357.795.792.795a.8.8 0 0 0 .795-.795v-.263a.265.265 0 1 0-.529 0v.263a.26.26 0 0 1-.266.266.258.258 0 0 1-.263-.266v-.313a.798.798 0 0 0 .53-.745.796.796 0 0 0-.53-.744v-.312c0-.484-.12-.939-.387-1.285a1.486 1.486 0 0 0-1.2-.568zm1.322 2.645c.15 0 .266.115.266.264 0 .15-.117.266-.266.266a.26.26 0 0 1-.263-.266.26.26 0 0 1 .263-.264zm-2.643.264c.15 0 .263.115.263.266v1.85a.258.258 0 0 1-.263.266.26.26 0 0 1-.266-.265v-1.851a.26.26 0 0 1 .266-.266z" color="#000" font-family="sans-serif" font-weight="400" overflow="visible" transform="translate(0 -290.65)" style="line-height:normal;font-variant-ligatures:normal;font-variant-position:normal;font-variant-caps:normal;font-variant-numeric:normal;font-variant-alternates:normal;font-feature-settings:normal;text-indent:0;text-align:start;text-decoration-line:none;text-decoration-style:solid;text-decoration-color:#000;text-transform:none;text-orientation:mixed;shape-padding:0;isolation:auto;mix-blend-mode:normal" fill="#f5f5f5" class="color000 svgShape"></path></svg></g></svg>