<svg id="SvgjsSvg1275" width="288" height="288" xmlns="http://www.w3.org/2000/svg" version="1.1" xmlns:xlink="http://www.w3.org/1999/xlink" xmlns:svgjs="http://svgjs.com/svgjs"><defs id="SvgjsDefs1276"></defs><g id="SvgjsG1277"><svg xmlns="http://www.w3.org/2000/svg" viewBox="0 0 20 20" width="288" height="288"><path d="M9.973 8.041a2.344 2.344 0 1 0 2.343 2.344A2.347 2.347 0 0 0 9.973 8.04Zm0 3.688a1.344 1.344 0 1 1 1.343-1.344 1.345 1.345 0 0 1-1.343 1.344Zm6.738-3.572a2.9 2.9 0 0 0-1.444-1.822 3.267 3.267 0 0 0-2.246-.144 3.29 3.29 0 0 0-.835-2.099A2.913 2.913 0 0 0 10 3.277a2.913 2.913 0 0 0-2.186.815 3.29 3.29 0 0 0-.835 2.1 3.267 3.267 0 0 0-2.246.143 2.9 2.9 0 0 0-1.444 1.82 2.918 2.918 0 0 0 .09 2.327 3.298 3.298 0 0 0 1.736 1.45 3.278 3.278 0 0 0-.557 2.18 2.915 2.915 0 0 0 1.29 1.946 3.11 3.11 0 0 0 1.827.665 2.426 2.426 0 0 0 .428-.038A3.273 3.273 0 0 0 10 15.487a3.273 3.273 0 0 0 1.897 1.198 2.92 2.92 0 0 0 2.257-.627 2.917 2.917 0 0 0 1.288-1.945 3.278 3.278 0 0 0-.557-2.18 3.298 3.298 0 0 0 1.736-1.451 2.915 2.915 0 0 0 .09-2.325Zm-.976 1.86a2.912 2.912 0 0 1-1.777 1.183.5.5 0 0 0-.253.787 2.884 2.884 0 0 1 .747 1.987 1.938 1.938 0 0 1-.886 1.275 1.948 1.948 0 0 1-1.495.451 2.871 2.871 0 0 1-1.657-1.32.52.52 0 0 0-.828 0 2.871 2.871 0 0 1-1.657 1.32 1.938 1.938 0 0 1-1.493-.451 1.937 1.937 0 0 1-.888-1.275 2.884 2.884 0 0 1 .747-1.987.5.5 0 0 0-.253-.787 2.912 2.912 0 0 1-1.777-1.183 1.94 1.94 0 0 1-.025-1.552 1.922 1.922 0 0 1 .932-1.232 1.823 1.823 0 0 1 .804-.167 3.992 3.992 0 0 1 1.318.265.5.5 0 0 0 .67-.487 2.895 2.895 0 0 1 .57-2.056A1.934 1.934 0 0 1 10 4.278a1.934 1.934 0 0 1 1.467.51 2.895 2.895 0 0 1 .568 2.056.5.5 0 0 0 .671.487 2.871 2.871 0 0 1 2.122-.098 1.921 1.921 0 0 1 .932 1.234 1.937 1.937 0 0 1-.025 1.55Z" fill="#f5f5f5" class="color000 svgShape"></path></svg></g></svg>