<svg id="SvgjsSvg1681" width="288" height="288" xmlns="http://www.w3.org/2000/svg" version="1.1" xmlns:xlink="http://www.w3.org/1999/xlink" xmlns:svgjs="http://svgjs.com/svgjs"><defs id="SvgjsDefs1682"></defs><g id="SvgjsG1683"><svg xmlns="http://www.w3.org/2000/svg" viewBox="0 0 16 16" width="288" height="288"><path style="line-height:normal;text-indent:0;text-align:start;text-decoration-line:none;text-decoration-style:solid;text-decoration-color:#000;text-transform:none;block-progression:tb;isolation:auto;mix-blend-mode:normal" d="M10.213.775s-.647.249-1.303.71c-.45.315-.94.75-1.207 1.32a2.59 2.59 0 0 0-.61-1.03 2.652 2.652 0 0 0-1.243-.693 2.91 2.91 0 0 0-1.541.053l-.26.078-.076.26c-.308 1.051.002 2.083.67 2.748.18.18.39.325.617.447A6.004 6.004 0 0 0 2 10c0 3.308 2.692 6 6 6s6-2.692 6-6c0-3.14-2.425-5.721-5.5-5.977v-.351c0-.485.443-.99.984-1.37.541-.38 1.09-.595 1.09-.595l-.361-.932zM5.28 2.031c.118-.01.231-.008.334.018.303.074.564.227.772.433.349.348.484.864.398 1.446-.572.075-1.086-.064-1.437-.414-.35-.349-.493-.863-.426-1.436.12-.016.242-.037.36-.047zm2.207 2.994H7.5v.983h1v-.983A4.992 4.992 0 0 1 13 10c0 2.767-2.233 5-5 5s-5-2.233-5-5a4.993 4.993 0 0 1 4.488-4.975z" color="#000" font-family="sans-serif" font-weight="400" overflow="visible" fill="#f5f5f5" class="color000 svgShape"></path></svg></g></svg>