<svg id="SvgjsSvg1256" width="288" height="288" xmlns="http://www.w3.org/2000/svg" version="1.1" xmlns:xlink="http://www.w3.org/1999/xlink" xmlns:svgjs="http://svgjs.com/svgjs"><defs id="SvgjsDefs1257"></defs><g id="SvgjsG1258"><svg xmlns="http://www.w3.org/2000/svg" viewBox="0 0 32.268 11.012" width="288" height="288"><path d="M32.086.515c.419 1.046.04 1.83-.402 2.751-.202.419-.538.748-.671 1.142-.152.449-.18.993-.269 1.477-.254 1.369-.514 2.865-1.409 3.689-.743.683-2.583 1.234-3.893 1.342-4.701.38-6.647-1.959-7.781-5.166-.342-.967-.468-1.982-1.744-1.879-1.022.083-1.068.916-1.477 2.146-.88 2.659-2.523 4.704-5.903 4.964-1.987.153-4.418-.252-5.435-1.207-.943-.888-1.281-2.681-1.609-4.294-.12-.588-.257-.84-.537-1.273a4.724 4.724 0 0 1-.335-.605C.25 2.783-.256 1.937.151.783 4.495.085 8.373.096 12.294.85c1.251.24 2.521.641 3.758.671 1.443.035 3.188-.521 4.562-.805 3.594-.74 7.531-1.062 11.472-.201z" fill="#f5f5f5" class="color000 svgShape"></path></svg></g></svg>