<svg id="SvgjsSvg1150" width="288" height="288" xmlns="http://www.w3.org/2000/svg" version="1.1" xmlns:xlink="http://www.w3.org/1999/xlink" xmlns:svgjs="http://svgjs.com/svgjs"><defs id="SvgjsDefs1151"></defs><g id="SvgjsG1152"><svg xmlns="http://www.w3.org/2000/svg" viewBox="0 0 1024 1024" width="288" height="288"><path d="M624 210.3c-11.7-17.3-24.2-30.1-41.6-41.7-7.9-5.3-16.9-8.7-25.7-12.3-5-2.1-10.1-3.7-15.4-4.7-21.1-3.9-39.8-4.2-60.9.5-13.5 3-27.3 8.9-38.8 16.7-27.6 18.7-49.4 45.7-57.4 78.6-8.2 33.6-3.7 69.7 13.8 99.7 10.5 18 24.4 31.2 41.1 43.2 4.6 3.3 9.4 6.1 14.6 8.3 6.7 2.9 13.6 6.2 20.7 8.4 2.9.9 5.8 1.5 8.6 2.7-4.8-2-9.6-4-14.3-6 1.7.8 3.2 1.7 4.6 2.8-4-3.1-8.1-6.3-12.1-9.4 1.4 1.2 2.6 2.4 3.8 3.8-3.1-4-6.3-8.1-9.4-12.1 1.1 1.5 2 2.9 2.8 4.6-2-4.8-4-9.6-6-14.3.9 2.1 1.5 4.2 1.9 6.5-.7-5.3-1.4-10.6-2.1-16 1.2 12.8.2 26 .2 38.8 0 12.9 1.1 26.2-.2 39 .7-5.3 1.4-10.6 2.1-16-.3 2-.8 3.8-1.5 5.7 2-4.8 4-9.6 6-14.3-.8 1.8-1.8 3.4-2.9 5.1 3.1-4 6.3-8.1 9.4-12.1-1.3 1.6-2.6 2.9-4.2 4.2 4-3.1 8.1-6.3 12.1-9.4-10.9 7.7-22.2 14.8-33.4 22.2l-80.1 53.1c-33.9 22.4-67.7 44.9-101.6 67.3L160.3 618l-67.5 44.7c-4.7 3.1-9.5 6.3-14.2 9.4-7.4 4.9-15 10.2-20.9 16.9-4.5 5.2-9.8 11.4-13.2 17.9-3.4 6.6-6.7 13.8-8.6 21-4.1 15.9-3.5 29.4-.7 45.3 4.4 24.7 21.8 46 42.4 59.3 14.1 9.1 32.1 13.2 48.8 13.4H898.4c4.3-.1 8.4-.8 12.7-1.4 5.6-.7 10.7-1.2 16-3.1 5.8-2.1 14.4-5.2 20.3-9.2 6.1-4.1 12.5-8.6 17.6-14 10.9-11.5 17.5-23.4 22.7-38.3.8-2.4 1.4-4.8 1.8-7.2 1.2-7.4 2.9-15.3 2.4-22.9-1.1-16.3-4.2-28.9-11.9-43.4-7.8-14.5-20-25.1-33.4-34.1-5.5-3.7-11.1-7.4-16.6-11.1-26.9-17.9-53.7-35.8-80.6-53.7-34.1-22.7-68.1-45.4-102.2-68.1-24.7-16.4-49.3-32.9-74-49.3-3.6-2.4-7.3-4.8-10.9-7.3-12.5-8.3-32.1-9.9-46.2-6-13.9 3.8-29 14.6-35.9 27.6-7.4 13.9-11 30.8-6 46.2 5 15.4 14.1 26.8 27.6 35.9 9.5 6.3 18.9 12.6 28.4 18.9 22.9 15.2 45.7 30.5 68.6 45.7 27.5 18.3 55 36.6 82.5 55 23.7 15.8 47.3 31.6 71 47.3 11.3 7.6 22.8 15 34.1 22.7.8.5 1.5 1.1 2.3 1.6-4-3.1-8.1-6.3-12.1-9.4 2.4 1.9 4.5 3.9 6.4 6.3-3.1-4-6.3-8.1-9.4-12.1 1.7 2.3 3.1 4.6 4.2 7.2-2-4.8-4-9.6-6-14.3 1 2.5 1.7 5.1 2.1 7.8-.7-5.3-1.4-10.6-2.1-16 .4 3 .4 6 .1 9 .7-5.3 1.4-10.6 2.1-16-.5 3.3-1.3 6.5-2.6 9.6 2-4.8 4-9.6 6-14.3-1.2 2.8-2.7 5.3-4.6 7.7 3.1-4 6.3-8.1 9.4-12.1-1.7 2.1-3.6 4-5.7 5.7 4-3.1 8.1-6.3 12.1-9.4-2.2 1.7-4.6 3-7.2 4.1 4.8-2 9.6-4 14.3-6-2.8 1.1-5.5 1.8-8.5 2.3 5.3-.7 10.6-1.4 16-2.1-8 .9-16.3.3-24.2.3H127.4c-1.9 0-3.8-.1-5.7-.3 5.3.7 10.6 1.4 16 2.1-2.9-.4-5.7-1.2-8.5-2.3 4.8 2 9.6 4 14.3 6-2.6-1.1-4.9-2.5-7.2-4.1 4 3.1 8.1 6.3 12.1 9.4-2.1-1.7-4-3.6-5.7-5.7 3.1 4 6.3 8.1 9.4 12.1-1.8-2.4-3.3-4.9-4.6-7.7 2 4.8 4 9.6 6 14.3-1.3-3.1-2.1-6.3-2.6-9.6.7 5.3 1.4 10.6 2.1 16-.3-3-.3-6 .1-9-.7 5.3-1.4 10.6-2.1 16 .4-2.7 1.1-5.3 2.1-7.8-2 4.8-4 9.6-6 14.3 1.1-2.6 2.5-5 4.2-7.2-3.1 4-6.3 8.1-9.4 12.1 1.9-2.4 4-4.4 6.4-6.3-4 3.1-8.1 6.3-12.1 9.4 18.8-13.8 39-25.9 58.4-38.7 42.8-28.3 85.6-56.7 128.3-85 44.6-29.5 89.2-59.1 133.8-88.6 24.7-16.3 49.3-32.7 74-49l1.8-1.2c17.7-11.9 31.3-27.9 37-48.8 3.7-13.7 2.9-28 2.9-42v-51c-.2-21.9-8.1-40.8-22.4-57.2-9.6-11-21.6-17-34.9-22-4.7-1.8-9.6-2.9-14.3-4.8 4.8 2 9.6 4 14.3 6-5.8-2.5-11.2-5.6-16.3-9.4 4 3.1 8.1 6.3 12.1 9.4-4.9-3.9-9.3-8.2-13.2-13.2 3.1 4 6.3 8.1 9.4 12.1-3.8-5-7-10.4-9.5-16.2 2 4.8 4 9.6 6 14.3-2.5-6-4.1-12.1-5-18.5.7 5.3 1.4 10.6 2.1 16-.7-6.1-.8-12.2-.1-18.4-.7 5.3-1.4 10.6-2.1 16 .9-6.3 2.5-12.4 4.8-18.4-2 4.8-4 9.6-6 14.3 2.4-5.8 5.5-11.1 9.3-16.1-3.1 4-6.3 8.1-9.4 12.1 4.1-5.3 8.7-9.9 14-14-4 3.1-8.1 6.3-12.1 9.4 5-3.7 10.4-6.8 16.1-9.3-4.8 2-9.6 4-14.3 6 5.9-2.4 12-4 18.4-4.8-5.3.7-10.6 1.4-16 2.1 6.4-.7 12.9-.7 19.3.2-5.3-.7-10.6-1.4-16-2.1 6.4 1 12.4 2.7 18.4 5.2-4.8-2-9.6-4-14.3-6 5.3 2.4 10.2 5.3 14.9 8.7-4-3.1-8.1-6.3-12.1-9.4 4.9 3.8 9.3 8.1 13.2 13-3.1-4-6.3-8.1-9.4-12.1 1.2 1.5 2.3 3.1 3.4 4.7 8.8 13 20.3 23.3 35.9 27.6 14.4 4 33.5 2.2 46.2-6 12.8-8.3 24.1-20.6 27.6-35.9 3.1-15.4 2.6-33.1-6.4-46.4z" fill="#f5f5f5" class="color000 svgShape"></path></svg></g></svg>