<svg id="SvgjsSvg1284" width="288" height="288" xmlns="http://www.w3.org/2000/svg" version="1.1" xmlns:xlink="http://www.w3.org/1999/xlink" xmlns:svgjs="http://svgjs.com/svgjs"><defs id="SvgjsDefs1285"></defs><g id="SvgjsG1286"><svg xmlns="http://www.w3.org/2000/svg" viewBox="0 0 24 24" width="288" height="288"><path d="M21.71,6.53,20.29,5.12l1.42-1.41a1,1,0,1,0-1.42-1.42L9.75,12.83a5,5,0,1,0,1.42,1.42l4.88-4.89,1.41,1.42a1,1,0,0,0,.71.29,1,1,0,0,0,.71-.29,1,1,0,0,0,0-1.42L17.46,8l1.42-1.42L20.29,8a1,1,0,0,0,.71.29A1,1,0,0,0,21.71,8,1,1,0,0,0,21.71,6.53ZM7,20a3,3,0,1,1,3-3A3,3,0,0,1,7,20Z" fill="#f5f5f5" class="color000 svgShape"></path></svg></g></svg>