<svg id="SvgjsSvg1711" width="288" height="288" xmlns="http://www.w3.org/2000/svg" version="1.1" xmlns:xlink="http://www.w3.org/1999/xlink" xmlns:svgjs="http://svgjs.com/svgjs"><defs id="SvgjsDefs1712"></defs><g id="SvgjsG1713"><svg xmlns="http://www.w3.org/2000/svg" viewBox="0 0 24 24" width="288" height="288"><path d="M21,2H3A1,1,0,0,0,2,3V21a1,1,0,0,0,1,1H21a1,1,0,0,0,1-1V3A1,1,0,0,0,21,2ZM20,20H4V4H20ZM7,14.79H9v2a1,1,0,0,0,1,1h4a1,1,0,0,0,1-1v-2h2a1,1,0,0,0,1-1v-4a1,1,0,0,0-1-1H15v-2a1,1,0,0,0-1-1H10a1,1,0,0,0-1,1v2H7a1,1,0,0,0-1,1v4A1,1,0,0,0,7,14.79Zm1-4h2a1,1,0,0,0,1-1v-2h2v2a1,1,0,0,0,1,1h2v2H14a1,1,0,0,0-1,1v2H11v-2a1,1,0,0,0-1-1H8Z" fill="#f5f5f5" class="color000 svgShape"></path></svg></g></svg>