<svg id="SvgjsSvg1232" width="288" height="288" xmlns="http://www.w3.org/2000/svg" version="1.1" xmlns:xlink="http://www.w3.org/1999/xlink" xmlns:svgjs="http://svgjs.com/svgjs"><defs id="SvgjsDefs1233"></defs><g id="SvgjsG1234"><svg xmlns="http://www.w3.org/2000/svg" enable-background="new 0 0 100 100" viewBox="0 0 100 100" width="288" height="288"><circle cx="29.602" cy="14.229" r="9.229" fill="#f5f5f5" class="color000 svgShape"></circle><path d="M39.078,25.973h-9.477l0,0h-9.477c-3.271,0-5.924,2.651-5.924,5.925V53.3c0,3.271,2.652,5.926,5.922,5.926h1.439v31.206c0,2.522,2.043,4.568,4.566,4.568h6.943c2.525,0,4.568-2.046,4.568-4.568V59.226h1.439c3.271,0,5.924-2.654,5.924-5.926V31.897C45.004,28.624,42.352,25.973,39.078,25.973z" fill="#f5f5f5" class="color000 svgShape"></path><path fill="#f5f5f5" d="M70.402 23.458c5.1 0 9.229-4.133 9.229-9.229C79.631 9.135 75.502 5 70.402 5c-5.096 0-9.227 4.135-9.227 9.229C61.176 19.325 65.307 23.458 70.402 23.458zM85.799 53.304V31.901c0-3.273-2.646-5.926-5.924-5.926H60.922c-3.27 0-5.92 2.652-5.92 5.926v21.402c0 2.274 1.281 4.245 3.16 5.237L55.424 71.93c0 2.382 1.932 4.311 4.313 4.311h2.625V90.43c0 2.523 2.045 4.57 4.566 4.57h6.943c2.523 0 4.568-2.047 4.568-4.57V76.24h2.633c2.383 0 4.309-1.929 4.309-4.311l-2.738-13.391C84.52 57.547 85.799 55.576 85.799 53.304z" class="color020202 svgShape"></path></svg></g></svg>