<svg id="SvgjsSvg1540" width="288" height="288" xmlns="http://www.w3.org/2000/svg" version="1.1" xmlns:xlink="http://www.w3.org/1999/xlink" xmlns:svgjs="http://svgjs.com/svgjs"><defs id="SvgjsDefs1541"></defs><g id="SvgjsG1542"><svg xmlns="http://www.w3.org/2000/svg" viewBox="0 0 24 24" width="288" height="288"><path d="M5.1 22.1c-.5 0-.9-.1-1.4-.2-.3-.1-.6-.3-.8-.5l-.1-.1c-.1-.1-.2-.3-.2-.4 0-.2.1-.3.3-.4.8-.4 1.5-1.1 1.9-1.9.1-.1.2-.2.2-.3C2.2 16.6.5 13.9.5 11 .5 6 5.7 1.8 12 1.8S23.5 6 23.5 11c0 5-5.2 9.2-11.5 9.2-.6 0-1.3 0-1.9-.1-1.5 1.3-3.3 2-5 2z" fill="#f5f5f5" class="color000 svgShape"></path></svg></g></svg>