<svg id="SvgjsSvg1306" width="288" height="288" xmlns="http://www.w3.org/2000/svg" version="1.1" xmlns:xlink="http://www.w3.org/1999/xlink" xmlns:svgjs="http://svgjs.com/svgjs"><defs id="SvgjsDefs1307"></defs><g id="SvgjsG1308"><svg xmlns="http://www.w3.org/2000/svg" viewBox="0 0 32 32" width="288" height="288"><path style="line-height:normal;-inkscape-font-specification:Sans;text-indent:0;text-align:start;text-decoration-line:none;text-transform:none;block-progression:tb;marker:none" fill="#f5f5f5" d="M15 1.063a1.97 1.97 0 0 0-1.969 1.75A2.979 2.979 0 0 1 15 2.063h3c.755 0 1.44.287 1.969.75A1.97 1.97 0 0 0 18 1.063h-3zm0 1.998v.002c-1.117 0-2 .883-2 2a.5.5 0 0 1 0 .03v9.532a4.688 4.688 0 0 1 3.406-1.563 4.77 4.77 0 0 1 1.813.313A4.65 4.65 0 0 1 20 14.625V5.156a.5.5 0 0 1 0-.095c0-1.117-.883-2-2-2h-3zm1.906.533-.031.469-.031.593.437.375.375.282-.437.125-.594.156-.219.562-.156.438-.25-.407-.313-.5h-.593l-.5-.03.312-.376.406-.468-.187-.563L15 3.781l.438.188.562.219.5-.313.406-.281zm-.562.937-.188.125-.093.063-.125-.032-.22-.093.063.218.063.125-.094.094-.156.188h.344l.093.093.125.22.063-.22.062-.125.094-.03.25-.063-.188-.125-.125-.094.032-.125v-.219zM12 6.75c-1.83 1.559-3 4.038-3 6.813V29.5c0 .262.238.5.5.5h14a.52.52 0 0 0 .5-.5V13.562c0-2.772-1.173-5.223-3-6.78v3.093c.03.991.027 1.903 0 2.719v3.469c0 1.653-1.347 3-3 3h-1.625c-.425.024-.876.027-1.375 0-1.653 0-3-1.347-3-3V6.75zm5.656.75.344.375.375.438.594-.063.468-.06-.25.437-.28.5.25.53.187.437-.469-.094-.563-.125-.437.375-.375.344-.031-.469-.063-.625-.5-.281L16.47 9l.437-.188.563-.218.093-.594.094-.5zm.282 1.063-.032.218-.031.125-.125.063-.188.094.188.093.125.063v.125l.031.219.157-.126.093-.093h.125l.219.06-.094-.187-.062-.125.062-.125.125-.188-.218.032-.125.03-.094-.124-.157-.155zm-2.157 1.03-.031.47-.031.593.469.375.375.281-.47.126-.593.156-.188.562-.187.438-.25-.406-.313-.5h-.593l-.469-.032.281-.375.406-.469L14 10.25l-.125-.469.469.188.531.219.5-.313.406-.281zm-.531.938-.219.125-.094.063-.124-.031-.22-.094.063.219.063.124-.094.094-.156.188h.375l.062.094.125.218.063-.219.062-.124.125-.032.219-.062-.188-.125-.093-.094v-.125l.031-.219zm1.156 3.531c-1.416.023-2.723.842-3.281 2.188a.505.505 0 0 1-.094.156c.161.948.97 1.657 1.969 1.657h3c.977 0 1.784-.677 1.969-1.594.002-.01-.002-.021 0-.032a.5.5 0 0 1-.063-.125c-.356-.917-1.112-1.63-2.062-2a3.827 3.827 0 0 0-1.438-.25z" color="#000" font-family="Sans" font-weight="400" overflow="visible" class="color373449 svgShape"></path></svg></g></svg>