<svg id="SvgjsSvg1090" width="288" height="288" xmlns="http://www.w3.org/2000/svg" version="1.1" xmlns:xlink="http://www.w3.org/1999/xlink" xmlns:svgjs="http://svgjs.com/svgjs"><defs id="SvgjsDefs1091"></defs><g id="SvgjsG1092"><svg xmlns="http://www.w3.org/2000/svg" id="Layer_1" x="0" y="0" version="1.1" viewBox="0 0 29 29" xml:space="preserve" width="288" height="288"><path d="M21.495 13.163v10.342a1 1 0 01-1 1h-15a1 1 0 01-1-1v-12h7.343l6.001-6H5.495c-1.654 0-3 1.346-3 3v15c0 1.654 1.346 3 3 3h15c1.654 0 3-1.346 3-3V11.162l-2 2.001zM24.505 7.323l1.414-1.414a2 2 0 10-2.828-2.828l-1.414 1.414 2.828 2.828z" fill="#f5f5f5" class="color000 svgShape"></path><path d="M20.262 5.909l-7.07 7.071-.708 3.536 3.536-.708 7.071-7.07z" fill="#f5f5f5" class="color000 svgShape"></path></svg></g></svg>