<svg id="SvgjsSvg1052" width="288" height="288" xmlns="http://www.w3.org/2000/svg" version="1.1" xmlns:xlink="http://www.w3.org/1999/xlink" xmlns:svgjs="http://svgjs.com/svgjs"><defs id="SvgjsDefs1053"></defs><g id="SvgjsG1054"><svg xmlns="http://www.w3.org/2000/svg" data-name="Layer 1" viewBox="0 0 42 42" width="288" height="288"><path fill="#f5f5f5" d="M37.28 4.72a5.52 5.52 0 0 0-7.78 0L5.73 28.49a1.56 1.56 0 0 0-.42.84L4.3 36a1.5 1.5 0 0 0 1.48 1.73h.23l6.66-1a1.56 1.56 0 0 0 .84-.42L37.28 12.5a5.52 5.52 0 0 0 0-7.78ZM11.74 33.8l-4.17.63.63-4.17 19.52-19.51 3.53 3.53Zm23.42-23.42-2.49 2.49-3.54-3.54 2.49-2.49a2.5 2.5 0 1 1 3.54 3.54Z" class="color231f20 svgShape"></path></svg></g></svg>