<svg id="SvgjsSvg1101" width="288" height="288" xmlns="http://www.w3.org/2000/svg" version="1.1" xmlns:xlink="http://www.w3.org/1999/xlink" xmlns:svgjs="http://svgjs.com/svgjs"><defs id="SvgjsDefs1102"></defs><g id="SvgjsG1103"><svg xmlns="http://www.w3.org/2000/svg" fill="none" viewBox="0 0 24 24" width="288" height="288"><path fill="#f5f5f5" fill-rule="evenodd" d="M10.872 3.4084C11.1886 3.14452 11.5878 3 12 3C12.4122 3 12.8114 3.14452 13.128 3.40841L17.6402 7.16853C17.8682 7.35852 18 7.63997 18 7.93675V20C18 20.5523 17.5523 21 17 21H7C6.44772 21 6 20.5523 6 20V7.93675C6 7.63997 6.13182 7.35852 6.35982 7.16853L10.872 3.4084ZM12 1C11.1199 1 10.2677 1.30855 9.5916 1.87196L5.07945 5.63209C4.39547 6.20207 4 7.04641 4 7.93675V20C4 21.6569 5.34315 23 7 23H17C18.6569 23 20 21.6569 20 20V7.93675C20 7.04641 19.6045 6.20207 18.9206 5.63209L14.4084 1.87196C13.7323 1.30855 12.8801 1 12 1ZM13 8C13 7.44772 12.5523 7 12 7C11.4477 7 11 7.44776 11 8C9.34315 8 8 9.34315 8 11C8 12.6569 9.34315 14 11 14H13C13.5523 14 14 14.4477 14 15C14 15.5523 13.5523 16 13 16H10C9.44772 16 9 16.4477 9 17C9 17.5523 9.44772 18 10 18H11C11 18.5523 11.4477 18.9999 12 18.9999C12.5523 18.9999 13 18.5523 13 18C14.6569 18 16 16.6569 16 15C16 13.3431 14.6569 12 13 12H11C10.4477 12 10 11.5523 10 11C10 10.4477 10.4477 10 11 10H14C14.5523 10 15 9.55228 15 9C15 8.44772 14.5523 8 14 8H13Z" clip-rule="evenodd" class="color000 svgShape"></path></svg></g></svg>