<svg id="SvgjsSvg1393" width="288" height="288" xmlns="http://www.w3.org/2000/svg" version="1.1" xmlns:xlink="http://www.w3.org/1999/xlink" xmlns:svgjs="http://svgjs.com/svgjs"><defs id="SvgjsDefs1394"></defs><g id="SvgjsG1395"><svg xmlns="http://www.w3.org/2000/svg" viewBox="0 0 20 20" width="288" height="288"><path d="M13.4 13c-.9 1-2.1 1.5-3.4 1.5s-2.5-.6-3.4-1.5c-.2-.2-.2-.5 0-.7.2-.2.5-.2.7 0 .7.8 1.7 1.2 2.7 1.2 1 0 2-.4 2.6-1.2.2-.2.5-.2.7 0 .2.2.2.5.1.7z" fill="#f5f5f5" class="color000 svgShape"></path><path fill="none" stroke="#f5f5f5" stroke-miterlimit="10" d="M10 3c-3.9 0-7 3.1-7 7s3.1 7 7 7 7-3.1 7-7-3.1-7-7-7zM6 8c0-.6.4-1 1-1s1 .4 1 1-.4 1-1 1-1-.4-1-1zm7 1c-.6 0-1-.4-1-1s.4-1 1-1 1 .4 1 1-.5 1-1 1z" class="colorStroke000 svgStroke"></path></svg></g></svg>