<svg xmlns="http://www.w3.org/2000/svg" enable-background="new 0 0 512 512" viewBox="0 0 512 512" id="statistics"><path fill-rule="evenodd" d="M116.38,251.822h38.561c8.262,0,15,6.738,15,15v101.662c0,8.262-6.738,15-15,15H116.38c-8.262,0-15-6.738-15-15
	V266.822C101.38,258.561,108.118,251.822,116.38,251.822L116.38,251.822z M469.378,430.619H54.245V69.758
	c0-6.419-5.204-11.622-11.623-11.622S31,63.339,31,69.758v372.484c0,6.419,5.203,11.623,11.622,11.623h426.755
	c6.419,0,11.622-5.204,11.622-11.623C481,435.823,475.796,430.619,469.378,430.619L469.378,430.619z M247.307,170.676h38.561
	c8.262,0,15,6.738,15,15v182.809c0,8.262-6.738,15-15,15h-38.561c-8.262,0-15-6.738-15-15V185.676
	C232.307,177.414,239.045,170.676,247.307,170.676L247.307,170.676z M378.234,94.077h38.561c8.262,0,15,6.738,15,15v259.408
	c0,8.262-6.738,15-15,15h-38.561c-8.262,0-15-6.738-15-15V109.077C363.234,100.815,369.972,94.077,378.234,94.077z" clip-rule="evenodd"></path></svg>