<svg id="SvgjsSvg1092" width="288" height="288" xmlns="http://www.w3.org/2000/svg" version="1.1" xmlns:xlink="http://www.w3.org/1999/xlink" xmlns:svgjs="http://svgjs.com/svgjs"><defs id="SvgjsDefs1093"></defs><g id="SvgjsG1094"><svg xmlns="http://www.w3.org/2000/svg" viewBox="0 0 96 96" width="288" height="288"><switch><g><path d="M72 12H24c-6.63 0-12 5.37-12 12v48c0 6.63 5.37 12 12 12h48c6.63 0 12-5.37 12-12V24c0-6.63-5.37-12-12-12zm4 60c0 2.21-1.79 4-4 4H24c-2.21 0-4-1.79-4-4V24c0-2.21 1.79-4 4-4h48c2.21 0 4 1.79 4 4v48z" fill="#f5f5f5" class="color000 svgShape"></path></g></switch></svg></g></svg>