<svg id="SvgjsSvg1167" width="288" height="288" xmlns="http://www.w3.org/2000/svg" version="1.1" xmlns:xlink="http://www.w3.org/1999/xlink" xmlns:svgjs="http://svgjs.com/svgjs"><defs id="SvgjsDefs1168"></defs><g id="SvgjsG1169"><svg xmlns="http://www.w3.org/2000/svg" viewBox="0 0 96 96" width="288" height="288"><switch><g><path d="M52 4v8a4 4 0 0 1-8 0V4a4 4 0 0 1 8 0zm-4 76a4 4 0 0 0-4 4v8a4 4 0 0 0 8 0v-8a4 4 0 0 0-4-4zM14.059 14.059a4 4 0 0 0 0 5.657l5.657 5.657a4 4 0 0 0 5.657-5.657l-5.657-5.657a4 4 0 0 0-5.657 0zm56.568 56.568a4 4 0 0 0 0 5.657l5.657 5.657a4 4 0 0 0 5.657-5.657l-5.657-5.657a4 4 0 0 0-5.657 0zM0 48a4 4 0 0 0 4 4h8a4 4 0 0 0 0-8H4a4 4 0 0 0-4 4zm80 0a4 4 0 0 0 4 4h8a4 4 0 0 0 0-8h-8a4 4 0 0 0-4 4zM14.059 81.941a4 4 0 0 0 5.657 0l5.656-5.657a4 4 0 0 0-5.656-5.657l-5.657 5.657a4 4 0 0 0 0 5.657zm56.568-56.568a4 4 0 0 0 5.657 0l5.657-5.657a4 4 0 0 0-5.657-5.657l-5.657 5.657a4 4 0 0 0 0 5.657zM72 48c0 13.255-10.745 24-24 24S24 61.255 24 48s10.745-24 24-24 24 10.745 24 24zm-8 0c0-8.837-7.163-16-16-16s-16 7.163-16 16 7.163 16 16 16 16-7.163 16-16z" fill="#f5f5f5" class="color000 svgShape"></path></g></switch></svg></g></svg>