<svg id="SvgjsSvg1215" width="288" height="288" xmlns="http://www.w3.org/2000/svg" version="1.1" xmlns:xlink="http://www.w3.org/1999/xlink" xmlns:svgjs="http://svgjs.com/svgjs"><defs id="SvgjsDefs1216"></defs><g id="SvgjsG1217"><svg xmlns="http://www.w3.org/2000/svg" viewBox="0 0 32 32" width="288" height="288"><g data-name="Thunder cloud"><path d="M23.49,8.78a9,9,0,0,0-16,2,6,6,0,0,0,.48,12,5.94,5.94,0,0,0,4.16-1.69,1,1,0,0,0,0-1.41,1,1,0,0,0-1.42,0A4,4,0,0,1,8,20.75a4,4,0,0,1,0-8H8l.21,0a1,1,0,0,0,1-.75,7,7,0,0,1,12.84-1.77,1.12,1.12,0,0,0,.94.5A5,5,0,1,1,20.31,20a1,1,0,0,0-1.08,1.69A7,7,0,1,0,23.49,8.78Z" fill="#f5f5f5" class="color000 svgShape"></path><path d="M17.82,22.3l-1.76-.58,1.27-1.92a1,1,0,1,0-1.66-1.1l-2,3a1,1,0,0,0-.12.87,1,1,0,0,0,.63.63l1.76.58L14.67,25.7A1,1,0,0,0,15,27.08a.94.94,0,0,0,.55.17,1,1,0,0,0,.83-.45l2-3a1,1,0,0,0,.12-.87A1,1,0,0,0,17.82,22.3Z" fill="#f5f5f5" class="color000 svgShape"></path></g></svg></g></svg>