<svg xmlns="http://www.w3.org/2000/svg" id="timer" x="0" y="0" version="1.1" viewBox="0 0 29 29" xml:space="preserve"><path d="M14.5 27C7.607 27 2 21.393 2 14.5c0-3.291 1.334-6.512 3.661-8.839a.999.999 0 1 1 1.414 1.414A10.576 10.576 0 0 0 4 14.5C4 20.29 8.71 25 14.5 25S25 20.29 25 14.5c0-5.453-4.177-9.948-9.5-10.453V9a1 1 0 0 1-2 0V3a1 1 0 0 1 1-1C21.393 2 27 7.607 27 14.5S21.393 27 14.5 27z"></path><path d="M8.793 10.207a.999.999 0 1 1 1.414-1.414l5.707 4.293a2 2 0 1 1-2.828 2.828l-4.293-5.707z"></path></svg>