<svg id="SvgjsSvg1032" width="288" height="288" xmlns="http://www.w3.org/2000/svg" version="1.1" xmlns:xlink="http://www.w3.org/1999/xlink" xmlns:svgjs="http://svgjs.com/svgjs"><defs id="SvgjsDefs1033"></defs><g id="SvgjsG1034"><svg xmlns="http://www.w3.org/2000/svg" id="Layer_1" x="0" y="0" version="1.1" viewBox="0 0 29 29" xml:space="preserve" width="288" height="288"><path d="M14.5 27C7.607 27 2 21.393 2 14.5c0-3.291 1.334-6.512 3.661-8.839a.999.999 0 1 1 1.414 1.414A10.576 10.576 0 0 0 4 14.5C4 20.29 8.71 25 14.5 25S25 20.29 25 14.5c0-5.453-4.177-9.948-9.5-10.453V9a1 1 0 0 1-2 0V3a1 1 0 0 1 1-1C21.393 2 27 7.607 27 14.5S21.393 27 14.5 27z" fill="#f5f5f5" class="color000 svgShape"></path><path d="M8.793 10.207a.999.999 0 1 1 1.414-1.414l5.707 4.293a2 2 0 1 1-2.828 2.828l-4.293-5.707z" fill="#f5f5f5" class="color000 svgShape"></path></svg></g></svg>