<svg id="SvgjsSvg1167" width="288" height="288" xmlns="http://www.w3.org/2000/svg" version="1.1" xmlns:xlink="http://www.w3.org/1999/xlink" xmlns:svgjs="http://svgjs.com/svgjs"><defs id="SvgjsDefs1168"></defs><g id="SvgjsG1169"><svg xmlns="http://www.w3.org/2000/svg" viewBox="0 0 20 20" width="288" height="288"><path fill="none" stroke="#f5f5f5" stroke-miterlimit="10" d="M7.2 2.4h5.5" class="colorStroke000 svgStroke"></path><path fill="none" stroke="#f5f5f5" stroke-linecap="round" stroke-linejoin="round" stroke-miterlimit="10" d="m17.8 5.7-1.9-1.9c-.7-.9-1.8-1.4-3-1.4h-1.1c0 1.2-1 2.2-2.1 2.2-1.2 0-2.2-.9-2.2-2.2h-.9c-1.1 0-2.1.4-2.8 1.1h0l-.2.1-.1.1-2 2c-.5.4-.5 1.1 0 1.5L3 8.8c.5.4 1.1.4 1.5 0l.3-.3v8.6c0 .9.3 1.4 1.1 1.4h7.6c.8 0 1.1-.5 1.1-1.4V8.5l.3.3c.4.4 1 .4 1.5 0l1.4-1.5c.5-.4.5-1.2 0-1.6z" class="colorStroke000 svgStroke"></path><path fill="none" stroke="#f5f5f5" stroke-linecap="round" stroke-linejoin="round" stroke-miterlimit="10" d="M12.2 10.9h-1c-.3 0-.5-.2-.5-.5v-2h2v2c0 .3-.3.5-.5.5z" class="colorStroke000 svgStroke"></path></svg></g></svg>