<svg id="SvgjsSvg1272" width="288" height="288" xmlns="http://www.w3.org/2000/svg" version="1.1" xmlns:xlink="http://www.w3.org/1999/xlink" xmlns:svgjs="http://svgjs.com/svgjs"><defs id="SvgjsDefs1273"></defs><g id="SvgjsG1274"><svg xmlns="http://www.w3.org/2000/svg" viewBox="0 0 24 24" width="288" height="288"><g data-name="Layer 2"><path d="M12 2A10 10 0 0 0 2 12a1 1 0 0 0 1 1h8v6a3 3 0 0 0 6 0 1 1 0 0 0-2 0 1 1 0 0 1-2 0v-6h8a1 1 0 0 0 1-1A10 10 0 0 0 12 2zm-7.94 9a8 8 0 0 1 15.88 0z" data-name="umbrella" fill="#f5f5f5" class="color000 svgShape"></path></g></svg></g></svg>