<svg id="SvgjsSvg1364" width="288" height="288" xmlns="http://www.w3.org/2000/svg" version="1.1" xmlns:xlink="http://www.w3.org/1999/xlink" xmlns:svgjs="http://svgjs.com/svgjs"><defs id="SvgjsDefs1365"></defs><g id="SvgjsG1366"><svg xmlns="http://www.w3.org/2000/svg" viewBox="0 0 96 96" width="288" height="288"><switch><g><path d="M72 21.174V12c0-6.63-5.37-12-12-12H36c-6.63 0-12 5.37-12 12v9.174C16.637 27.766 12 37.34 12 48s4.637 20.234 12 26.826V84c0 6.63 5.37 12 12 12h24c6.63 0 12-5.37 12-12v-9.174C79.363 68.234 84 58.66 84 48s-4.637-20.234-12-26.826zM32 12c0-2.21 1.79-4 4-4h24c2.21 0 4 1.79 4 4v3.751C59.18 13.354 53.749 12 48 12s-11.179 1.354-16 3.751V12zm32 72c0 2.21-1.79 4-4 4H36c-2.21 0-4-1.79-4-4v-3.751C36.821 82.646 42.251 84 48 84s11.18-1.354 16-3.751V84zm-16-8c-15.464 0-28-12.536-28-28s12.536-28 28-28 28 12.536 28 28-12.536 28-28 28zm8-16a3.988 3.988 0 0 1-2.828-1.172l-8-8A4 4 0 0 1 44 48V32a4 4 0 0 1 8 0v14.343l6.828 6.829A4 4 0 0 1 56 60z" fill="#f5f5f5" class="color000 svgShape"></path></g></switch></svg></g></svg>