<svg id="SvgjsSvg1060" width="288" height="288" xmlns="http://www.w3.org/2000/svg" version="1.1" xmlns:xlink="http://www.w3.org/1999/xlink" xmlns:svgjs="http://svgjs.com/svgjs"><defs id="SvgjsDefs1061"></defs><g id="SvgjsG1062"><svg xmlns="http://www.w3.org/2000/svg" data-name="Layer 1" viewBox="0 0 48 48" width="288" height="288"><path d="M34.52 18.39a88.975 88.975 0 0 0-3.28-5.35l-.81-1.22-.82 1.18c-.05.08-1.14 1.7-2.42 3.86a1 1 0 0 0-.08-.14C24.6 12.3 22 8.48 22 8.44l-.8-1.22-.81 1.22s-2.58 3.86-5.1 8.32c-3.44 6.09-5.18 10.44-5.18 12.92a11.09 11.09 0 0 0 21.2 4.58 7.48 7.48 0 0 0 6.58-7.41c0-1.68-1.1-4.45-3.37-8.46ZM21.2 38.81a9.14 9.14 0 0 1-9.13-9.13c0-3.95 6-14 9.13-18.9 1.33 2.06 3.17 5.05 4.85 8.11C24 22.63 23 25.24 23 26.85a7.48 7.48 0 0 0 6.17 7.35 9.13 9.13 0 0 1-7.97 4.61ZM32 32.1a5.44 5.44 0 0 1-1.6.24 3.93 3.93 0 0 1-.49 0 5.51 5.51 0 0 1-5-5.47c0-1.26 1-3.53 2.23-5.87.36-.69.75-1.39 1.14-2.07.74-1.31 1.5-2.54 2.13-3.52.61 1 1.5 2.4 2.38 4 2.71 4.79 3.12 6.75 3.12 7.49A5.5 5.5 0 0 1 32 32.1Z" fill="#f5f5f5" class="color000 svgShape"></path></svg></g></svg>