<svg id="SvgjsSvg1232" width="288" height="288" xmlns="http://www.w3.org/2000/svg" version="1.1" xmlns:xlink="http://www.w3.org/1999/xlink" xmlns:svgjs="http://svgjs.com/svgjs"><defs id="SvgjsDefs1233"></defs><g id="SvgjsG1234"><svg xmlns="http://www.w3.org/2000/svg" viewBox="0 0 64 64" width="288" height="288"><path d="M60 29.5h-1.44l1.743-1.743a1 1 0 0 0 0-1.414l-2.121-2.121a1 1 0 0 0-1.414 0L51.489 29.5h-1.864l1.678-1.678a1 1 0 0 0 0-1.414l-2.121-2.12a1 1 0 0 0-1.414 0L42.555 29.5h-2.958a7.983 7.983 0 0 0-.458-1.103L45.536 22H53a1 1 0 0 0 1-1v-3a1 1 0 0 0-1-1h-2.464l2.293-2.293a1 1 0 0 0 0-1.414l-2.122-2.121a1 1 0 0 0-1.414 0L47 13.465V11a1 1 0 0 0-1-1h-3a1 1 0 0 0-1 1v7.465l-6.397 6.396a7.983 7.983 0 0 0-1.103-.458v-2.898l5.278-5.278a1 1 0 0 0 0-1.414l-2.12-2.122a1 1 0 0 0-1.415 0L34.5 14.434v-1.988l5.214-5.214a1 1 0 0 0 0-1.414l-2.121-2.12a1 1 0 0 0-1.414 0L34.5 5.374V4a1 1 0 0 0-1-1h-3a1 1 0 0 0-1 1v1.504l-1.808-1.807a1 1 0 0 0-1.414 0l-2.12 2.121a1 1 0 0 0 0 1.414l5.342 5.343v1.859l-1.743-1.743a1 1 0 0 0-1.414 0l-2.121 2.121a1 1 0 0 0 0 1.415l5.278 5.278v2.897c-.41.135-.807.302-1.188.501L22 18.593V11a1 1 0 0 0-1-1h-3a1 1 0 0 0-1 1v2.593l-2.346-2.346a.999.999 0 0 0-1.388-.024l-2.198 2.046a1 1 0 0 0-.025 1.438L13.336 17H11a1 1 0 0 0-1 1v3a1 1 0 0 0 1 1h7.336l6.483 6.484c-.162.33-.3.67-.416 1.016H21.51l-5.277-5.278a1 1 0 0 0-1.414 0l-2.12 2.12a1 1 0 0 0 0 1.415L14.44 29.5h-1.997l-5.21-5.213a1 1 0 0 0-1.415 0l-2.12 2.121a1 1 0 0 0 0 1.414L5.373 29.5H4a1 1 0 0 0-1 1v3a1 1 0 0 0 1 1h1.506l-1.809 1.809a1 1 0 0 0 0 1.414l2.121 2.12a1 1 0 0 0 1.414 0l5.344-5.343h1.864l-1.743 1.743a1 1 0 0 0 0 1.414l2.121 2.121a1 1 0 0 0 1.414 0l5.279-5.278h2.892c.125.378.278.746.458 1.103L18.465 42H11a1 1 0 0 0-1 1v3a1 1 0 0 0 1 1h2.465l-2.288 2.288a1 1 0 0 0-.02 1.395l2.064 2.18c.185.196.443.308.713.312a1.06 1.06 0 0 0 .72-.293L17 50.536V53a1 1 0 0 0 1 1h3a1 1 0 0 0 1-1v-7.464l6.397-6.397c.357.18.725.333 1.103.458v2.829l-5.343 5.343a1 1 0 0 0 0 1.414l2.121 2.12a1 1 0 0 0 1.414 0l1.808-1.806v1.987l-5.278 5.279a1 1 0 0 0 0 1.414l2.12 2.12a1 1 0 0 0 1.415 0l1.743-1.741V60a1 1 0 0 0 1 1h3a1 1 0 0 0 1-1v-1.444l1.743 1.742a1 1 0 0 0 1.414 0l2.121-2.121a1 1 0 0 0 0-1.414L34.5 51.484v-1.858l1.679 1.678a1 1 0 0 0 1.414 0l2.12-2.121a1 1 0 0 0 0-1.414L34.5 42.555v-2.958a8.043 8.043 0 0 0 1.016-.416l6.941 6.94-.002 7.613a1 1 0 0 0 1 1h3a1 1 0 0 0 1-1V51.12l1.705 1.705a.997.997 0 0 0 1.395.019l2.178-2.065a1 1 0 0 0 .02-1.432l-1.611-1.612h2.313a1 1 0 0 0 1-1v-3a1 1 0 0 0-1-1h-7.313l-7.045-7.046c.199-.381.366-.778.5-1.188h2.829l5.342 5.344a1 1 0 0 0 1.414 0l2.12-2.121a1 1 0 0 0 0-1.414L49.496 34.5h1.996l5.277 5.278a1 1 0 0 0 1.414 0l2.12-2.12a1 1 0 0 0 0-1.415L58.56 34.5H60a1 1 0 0 0 1-1v-3a1 1 0 0 0-1-1zM32 35a3 3 0 1 1 0-6 3 3 0 0 1 0 6z" fill="#f5f5f5" class="color000 svgShape"></path></svg></g></svg>